<?xml version="1.0" encoding="iso-8859-1"?>
<!-- Uploaded to: SVG Repo, www.svgrepo.com, Generator: SVG Repo Mixer Tools -->
<!DOCTYPE svg PUBLIC "-//W3C//DTD SVG 1.1//EN" "http://www.w3.org/Graphics/SVG/1.1/DTD/svg11.dtd">
<svg fill="#000000" height="800px" width="800px" version="1.1" id="Capa_1" xmlns="http://www.w3.org/2000/svg" xmlns:xlink="http://www.w3.org/1999/xlink" 
	 viewBox="0 0 310 310" xml:space="preserve">
<path d="M309.987,118.749L302.24,12.383c-0.18-2.475-2.148-4.443-4.623-4.624L191.251,0.013c-1.461-0.106-2.873,0.424-3.899,1.451
	L1.465,187.352c-1.953,1.953-1.953,5.119,0,7.071l114.112,114.112c0.976,0.976,2.256,1.464,3.535,1.464
	c1.279,0,2.56-0.488,3.535-1.464l185.888-185.888C309.563,121.621,310.093,120.198,309.987,118.749z M189.136,136.38l-7.941,7.94
	c3.446,5.183,5.917,10.785,7.047,16.04c0.199,0.923,0.023,1.888-0.489,2.681c-0.513,0.793-1.318,1.351-2.242,1.549l-13.225,2.846
	c-0.923,0.198-1.887,0.022-2.681-0.49c-0.792-0.512-1.351-1.318-1.549-2.241c-0.94-4.369-4.233-10.055-8.007-13.83
	c-3.921-3.921-11.627-9.477-15.654-5.449c-4.106,4.108-3.56,7.357,3.442,20.445c6.006,11.223,15.082,28.184,0.02,42.996
	c-5.943,5.945-13.956,8.37-22.541,6.807c-3.749-0.683-7.507-2.117-11.201-4.271l-8.292,8.292c-1.39,1.39-3.645,1.39-5.035,0
	l-9.566-9.566c-1.391-1.39-1.391-3.644,0-5.035l7.67-7.67c-5.672-8.046-8.854-17.896-8.604-26.929
	c0.054-1.966,1.691-3.515,3.657-3.462l13.523,0.374c1.966,0.055,3.515,1.692,3.46,3.656c-0.16,5.809,2.963,13.103,7.596,17.751
	c0.019,0.02,0.037,0.038,0.057,0.057c3.574,3.568,7.376,5.932,10.435,6.489c2.349,0.428,3.494-0.342,4.304-1.153
	c3.234-3.18,3.134-5.849-3.685-18.594c-6.194-11.575-15.554-29.066,0.162-44.786c9.53-9.53,23.745-9.885,36.856-1.164l7.885-7.884
	c0.668-0.668,1.573-1.043,2.518-1.043c0.944,0,1.85,0.376,2.517,1.043c0,0,0,0,0.001,0l9.565,9.566
	C190.527,132.735,190.527,134.99,189.136,136.38z M236.96,95.109c-13.066,0-23.695-10.629-23.695-23.694
	c0-13.065,10.63-23.695,23.695-23.695c13.065,0,23.695,10.63,23.695,23.695C260.656,84.479,250.026,95.109,236.96,95.109z"/>
</svg>